<mxfile host="Electron" agent="Mozilla/5.0 (Windows NT 10.0; Win64; x64) AppleWebKit/537.36 (KHTML, like Gecko) draw.io/27.0.9 Chrome/134.0.6998.205 Electron/35.4.0 Safari/537.36" version="27.0.9">
  <diagram name="Sivu-1" id="fgxw2YVnjGBhy6u18ceZ">
    <mxGraphModel dx="1869" dy="626" grid="1" gridSize="10" guides="1" tooltips="1" connect="1" arrows="1" fold="1" page="1" pageScale="1" pageWidth="827" pageHeight="1169" math="0" shadow="0">
      <root>
        <mxCell id="0" />
        <mxCell id="1" parent="0" />
        <mxCell id="VYQ_RiGzpVqr3wYTIopy-1" value="&lt;font style=&quot;font-size: 30px;&quot;&gt;&lt;b&gt;Data Flow Diagram&lt;/b&gt;&lt;/font&gt;" style="text;html=1;align=center;verticalAlign=middle;whiteSpace=wrap;rounded=0;" parent="1" vertex="1">
          <mxGeometry x="-810" y="30" width="300" height="30" as="geometry" />
        </mxCell>
        <mxCell id="VYQ_RiGzpVqr3wYTIopy-2" value="" style="rounded=0;whiteSpace=wrap;html=1;fillColor=none;dashed=1;" parent="1" vertex="1">
          <mxGeometry x="-780" y="165" width="200" height="490" as="geometry" />
        </mxCell>
        <mxCell id="VYQ_RiGzpVqr3wYTIopy-3" value="&lt;font style=&quot;font-size: 24px;&quot;&gt;Sources&lt;/font&gt;" style="text;html=1;align=center;verticalAlign=middle;whiteSpace=wrap;rounded=0;fillColor=default;" parent="1" vertex="1">
          <mxGeometry x="-740" y="145" width="120" height="30" as="geometry" />
        </mxCell>
        <mxCell id="VYQ_RiGzpVqr3wYTIopy-4" value="&lt;font style=&quot;font-size: 22px;&quot;&gt;&lt;b&gt;CRM&lt;/b&gt;&lt;/font&gt;" style="image;aspect=fixed;html=1;points=[];align=center;fontSize=12;image=img/lib/azure2/general/Folder_Blank.svg;" parent="1" vertex="1">
          <mxGeometry x="-714.5" y="287" width="69" height="56.00000000000001" as="geometry" />
        </mxCell>
        <mxCell id="VYQ_RiGzpVqr3wYTIopy-5" value="&lt;font style=&quot;font-size: 22px;&quot;&gt;&lt;b style=&quot;&quot;&gt;ERP&lt;/b&gt;&lt;/font&gt;" style="image;aspect=fixed;html=1;points=[];align=center;fontSize=12;image=img/lib/azure2/general/Folder_Blank.svg;" parent="1" vertex="1">
          <mxGeometry x="-714.5" y="502" width="69" height="56.00000000000001" as="geometry" />
        </mxCell>
        <mxCell id="VYQ_RiGzpVqr3wYTIopy-8" value="" style="rounded=1;whiteSpace=wrap;html=1;fillColor=none;gradientColor=#ffd966;strokeColor=#d6b656;" parent="1" vertex="1">
          <mxGeometry x="-530" y="195" width="200" height="460" as="geometry" />
        </mxCell>
        <mxCell id="VYQ_RiGzpVqr3wYTIopy-9" value="&lt;font style=&quot;font-size: 22px; color: rgb(0, 0, 0);&quot;&gt;&lt;b&gt;Bronze Layer&lt;/b&gt;&lt;/font&gt;" style="rounded=1;whiteSpace=wrap;html=1;fillColor=#fff2cc;gradientColor=#ffd966;strokeColor=#d6b656;" parent="1" vertex="1">
          <mxGeometry x="-530" y="130" width="200" height="60" as="geometry" />
        </mxCell>
        <mxCell id="VYQ_RiGzpVqr3wYTIopy-10" value="&lt;font style=&quot;color: rgb(0, 0, 0);&quot;&gt;crm_sales_details&lt;/font&gt;" style="rounded=1;whiteSpace=wrap;html=1;fillColor=#fff2cc;gradientColor=#ffd966;strokeColor=#d6b656;" parent="1" vertex="1">
          <mxGeometry x="-520" y="235" width="180" height="40" as="geometry" />
        </mxCell>
        <mxCell id="VYQ_RiGzpVqr3wYTIopy-11" value="&lt;font style=&quot;color: rgb(0, 0, 0);&quot;&gt;crm_cust_info&lt;/font&gt;" style="rounded=1;whiteSpace=wrap;html=1;fillColor=#fff2cc;gradientColor=#ffd966;strokeColor=#d6b656;" parent="1" vertex="1">
          <mxGeometry x="-520" y="295" width="180" height="40" as="geometry" />
        </mxCell>
        <mxCell id="VYQ_RiGzpVqr3wYTIopy-12" value="&lt;font style=&quot;color: rgb(0, 0, 0);&quot;&gt;crm_prd_info&lt;/font&gt;" style="rounded=1;whiteSpace=wrap;html=1;fillColor=#fff2cc;gradientColor=#ffd966;strokeColor=#d6b656;" parent="1" vertex="1">
          <mxGeometry x="-520" y="355" width="180" height="40" as="geometry" />
        </mxCell>
        <mxCell id="VYQ_RiGzpVqr3wYTIopy-13" value="&lt;font style=&quot;color: rgb(0, 0, 0);&quot;&gt;erp_cust_az12&lt;/font&gt;" style="rounded=1;whiteSpace=wrap;html=1;fillColor=#fff2cc;gradientColor=#ffd966;strokeColor=#d6b656;" parent="1" vertex="1">
          <mxGeometry x="-520" y="455" width="180" height="40" as="geometry" />
        </mxCell>
        <mxCell id="VYQ_RiGzpVqr3wYTIopy-14" value="erp_loc_a101" style="rounded=1;whiteSpace=wrap;html=1;fillColor=#fff2cc;gradientColor=#ffd966;strokeColor=#d6b656;" parent="1" vertex="1">
          <mxGeometry x="-520" y="515" width="180" height="40" as="geometry" />
        </mxCell>
        <mxCell id="VYQ_RiGzpVqr3wYTIopy-15" value="erp_px_cat_g1v2" style="rounded=1;whiteSpace=wrap;html=1;fillColor=#fff2cc;gradientColor=#ffd966;strokeColor=#d6b656;" parent="1" vertex="1">
          <mxGeometry x="-520" y="575" width="180" height="40" as="geometry" />
        </mxCell>
        <mxCell id="VYQ_RiGzpVqr3wYTIopy-16" value="" style="endArrow=classic;html=1;rounded=0;entryX=0;entryY=0.5;entryDx=0;entryDy=0;" parent="1" source="VYQ_RiGzpVqr3wYTIopy-4" target="VYQ_RiGzpVqr3wYTIopy-10" edge="1">
          <mxGeometry width="50" height="50" relative="1" as="geometry">
            <mxPoint x="-560" y="355" as="sourcePoint" />
            <mxPoint x="-510" y="305" as="targetPoint" />
            <Array as="points">
              <mxPoint x="-570" y="315" />
              <mxPoint x="-570" y="255" />
            </Array>
          </mxGeometry>
        </mxCell>
        <mxCell id="VYQ_RiGzpVqr3wYTIopy-17" value="" style="endArrow=classic;html=1;rounded=0;entryX=0;entryY=0.5;entryDx=0;entryDy=0;" parent="1" source="VYQ_RiGzpVqr3wYTIopy-4" target="VYQ_RiGzpVqr3wYTIopy-12" edge="1">
          <mxGeometry width="50" height="50" relative="1" as="geometry">
            <mxPoint x="-540" y="303" as="sourcePoint" />
            <mxPoint x="-560" y="375" as="targetPoint" />
            <Array as="points">
              <mxPoint x="-570" y="315" />
              <mxPoint x="-570" y="375" />
            </Array>
          </mxGeometry>
        </mxCell>
        <mxCell id="VYQ_RiGzpVqr3wYTIopy-18" value="" style="endArrow=classic;html=1;rounded=0;exitX=0.999;exitY=0.514;exitDx=0;exitDy=0;exitPerimeter=0;entryX=0;entryY=0.5;entryDx=0;entryDy=0;" parent="1" source="VYQ_RiGzpVqr3wYTIopy-4" target="VYQ_RiGzpVqr3wYTIopy-11" edge="1">
          <mxGeometry width="50" height="50" relative="1" as="geometry">
            <mxPoint x="-590" y="345" as="sourcePoint" />
            <mxPoint x="-540" y="295" as="targetPoint" />
          </mxGeometry>
        </mxCell>
        <mxCell id="VYQ_RiGzpVqr3wYTIopy-19" value="" style="endArrow=classic;html=1;rounded=0;entryX=0;entryY=0.5;entryDx=0;entryDy=0;" parent="1" edge="1">
          <mxGeometry width="50" height="50" relative="1" as="geometry">
            <mxPoint x="-645" y="535" as="sourcePoint" />
            <mxPoint x="-520" y="475" as="targetPoint" />
            <Array as="points">
              <mxPoint x="-570" y="535" />
              <mxPoint x="-570" y="475" />
            </Array>
          </mxGeometry>
        </mxCell>
        <mxCell id="VYQ_RiGzpVqr3wYTIopy-20" value="" style="endArrow=classic;html=1;rounded=0;entryX=0;entryY=0.5;entryDx=0;entryDy=0;" parent="1" edge="1">
          <mxGeometry width="50" height="50" relative="1" as="geometry">
            <mxPoint x="-645" y="535" as="sourcePoint" />
            <mxPoint x="-520" y="595" as="targetPoint" />
            <Array as="points">
              <mxPoint x="-570" y="535" />
              <mxPoint x="-570" y="595" />
            </Array>
          </mxGeometry>
        </mxCell>
        <mxCell id="VYQ_RiGzpVqr3wYTIopy-21" value="" style="endArrow=classic;html=1;rounded=0;exitX=0.999;exitY=0.514;exitDx=0;exitDy=0;exitPerimeter=0;entryX=0;entryY=0.5;entryDx=0;entryDy=0;" parent="1" edge="1">
          <mxGeometry width="50" height="50" relative="1" as="geometry">
            <mxPoint x="-646" y="536" as="sourcePoint" />
            <mxPoint x="-520" y="535" as="targetPoint" />
          </mxGeometry>
        </mxCell>
        <mxCell id="LW2idZFKdwX4DjIFP2Rq-1" value="" style="rounded=1;whiteSpace=wrap;html=1;fillColor=none;strokeColor=#666666;fontColor=#333333;" parent="1" vertex="1">
          <mxGeometry x="-280" y="195" width="200" height="460" as="geometry" />
        </mxCell>
        <mxCell id="LW2idZFKdwX4DjIFP2Rq-2" value="&lt;font style=&quot;font-size: 22px; color: rgb(0, 0, 0);&quot;&gt;&lt;b&gt;Silver Layer&lt;/b&gt;&lt;/font&gt;" style="rounded=1;whiteSpace=wrap;html=1;fillColor=#f5f5f5;strokeColor=#666666;fontColor=#333333;" parent="1" vertex="1">
          <mxGeometry x="-280" y="130" width="200" height="60" as="geometry" />
        </mxCell>
        <mxCell id="LW2idZFKdwX4DjIFP2Rq-3" value="&lt;font style=&quot;color: rgb(0, 0, 0);&quot;&gt;crm_sales_details&lt;/font&gt;" style="rounded=1;whiteSpace=wrap;html=1;fillColor=#f5f5f5;strokeColor=#666666;fontColor=#333333;" parent="1" vertex="1">
          <mxGeometry x="-270" y="235" width="180" height="40" as="geometry" />
        </mxCell>
        <mxCell id="LW2idZFKdwX4DjIFP2Rq-4" value="&lt;font style=&quot;color: rgb(0, 0, 0);&quot;&gt;crm_cust_info&lt;/font&gt;" style="rounded=1;whiteSpace=wrap;html=1;fillColor=#f5f5f5;strokeColor=#666666;fontColor=#333333;" parent="1" vertex="1">
          <mxGeometry x="-270" y="295" width="180" height="40" as="geometry" />
        </mxCell>
        <mxCell id="LW2idZFKdwX4DjIFP2Rq-5" value="&lt;font style=&quot;color: rgb(0, 0, 0);&quot;&gt;crm_prd_info&lt;/font&gt;" style="rounded=1;whiteSpace=wrap;html=1;fillColor=#f5f5f5;strokeColor=#666666;fontColor=#333333;" parent="1" vertex="1">
          <mxGeometry x="-270" y="355" width="180" height="40" as="geometry" />
        </mxCell>
        <mxCell id="LW2idZFKdwX4DjIFP2Rq-6" value="&lt;span style=&quot;color: rgb(0, 0, 0);&quot;&gt;erp_cust_az12&lt;/span&gt;" style="rounded=1;whiteSpace=wrap;html=1;fillColor=#f5f5f5;strokeColor=#666666;fontColor=#333333;" parent="1" vertex="1">
          <mxGeometry x="-270" y="455" width="180" height="40" as="geometry" />
        </mxCell>
        <mxCell id="LW2idZFKdwX4DjIFP2Rq-7" value="&lt;span style=&quot;color: rgb(0, 0, 0);&quot;&gt;erp_loc_a101&lt;/span&gt;" style="rounded=1;whiteSpace=wrap;html=1;fillColor=#f5f5f5;strokeColor=#666666;fontColor=#333333;" parent="1" vertex="1">
          <mxGeometry x="-270" y="515" width="180" height="40" as="geometry" />
        </mxCell>
        <mxCell id="LW2idZFKdwX4DjIFP2Rq-8" value="&lt;span style=&quot;color: rgb(0, 0, 0);&quot;&gt;erp_px_cat_g1v2&lt;/span&gt;" style="rounded=1;whiteSpace=wrap;html=1;fillColor=#f5f5f5;strokeColor=#666666;fontColor=#333333;" parent="1" vertex="1">
          <mxGeometry x="-270" y="575" width="180" height="40" as="geometry" />
        </mxCell>
        <mxCell id="LW2idZFKdwX4DjIFP2Rq-9" value="" style="endArrow=classic;html=1;rounded=0;entryX=0;entryY=0.5;entryDx=0;entryDy=0;exitX=1;exitY=0.5;exitDx=0;exitDy=0;" parent="1" source="VYQ_RiGzpVqr3wYTIopy-12" target="LW2idZFKdwX4DjIFP2Rq-5" edge="1">
          <mxGeometry width="50" height="50" relative="1" as="geometry">
            <mxPoint x="-300" y="380" as="sourcePoint" />
            <mxPoint x="-360" y="380" as="targetPoint" />
          </mxGeometry>
        </mxCell>
        <mxCell id="LW2idZFKdwX4DjIFP2Rq-10" value="" style="endArrow=classic;html=1;rounded=0;entryX=0;entryY=0.5;entryDx=0;entryDy=0;exitX=1;exitY=0.5;exitDx=0;exitDy=0;" parent="1" edge="1">
          <mxGeometry width="50" height="50" relative="1" as="geometry">
            <mxPoint x="-340" y="314.8" as="sourcePoint" />
            <mxPoint x="-270" y="314.8" as="targetPoint" />
          </mxGeometry>
        </mxCell>
        <mxCell id="LW2idZFKdwX4DjIFP2Rq-11" value="" style="endArrow=classic;html=1;rounded=0;entryX=0;entryY=0.5;entryDx=0;entryDy=0;exitX=1;exitY=0.5;exitDx=0;exitDy=0;" parent="1" edge="1">
          <mxGeometry width="50" height="50" relative="1" as="geometry">
            <mxPoint x="-340" y="254.8" as="sourcePoint" />
            <mxPoint x="-270" y="254.8" as="targetPoint" />
          </mxGeometry>
        </mxCell>
        <mxCell id="LW2idZFKdwX4DjIFP2Rq-12" value="" style="endArrow=classic;html=1;rounded=0;entryX=0;entryY=0.5;entryDx=0;entryDy=0;exitX=1;exitY=0.5;exitDx=0;exitDy=0;" parent="1" edge="1">
          <mxGeometry width="50" height="50" relative="1" as="geometry">
            <mxPoint x="-340" y="474.8" as="sourcePoint" />
            <mxPoint x="-270" y="474.8" as="targetPoint" />
          </mxGeometry>
        </mxCell>
        <mxCell id="LW2idZFKdwX4DjIFP2Rq-13" value="" style="endArrow=classic;html=1;rounded=0;entryX=0;entryY=0.5;entryDx=0;entryDy=0;exitX=1;exitY=0.5;exitDx=0;exitDy=0;" parent="1" edge="1">
          <mxGeometry width="50" height="50" relative="1" as="geometry">
            <mxPoint x="-340" y="534.8" as="sourcePoint" />
            <mxPoint x="-270" y="534.8" as="targetPoint" />
          </mxGeometry>
        </mxCell>
        <mxCell id="LW2idZFKdwX4DjIFP2Rq-14" value="" style="endArrow=classic;html=1;rounded=0;entryX=0;entryY=0.5;entryDx=0;entryDy=0;exitX=1;exitY=0.5;exitDx=0;exitDy=0;" parent="1" edge="1">
          <mxGeometry width="50" height="50" relative="1" as="geometry">
            <mxPoint x="-340" y="594.8" as="sourcePoint" />
            <mxPoint x="-270" y="594.8" as="targetPoint" />
          </mxGeometry>
        </mxCell>
        <mxCell id="1FpKwVnMBc2NFOBOfq-e-1" value="" style="rounded=1;whiteSpace=wrap;html=1;fillColor=none;strokeColor=#666666;fontColor=#333333;" vertex="1" parent="1">
          <mxGeometry x="-30" y="195" width="200" height="460" as="geometry" />
        </mxCell>
        <mxCell id="1FpKwVnMBc2NFOBOfq-e-2" value="&lt;font style=&quot;font-size: 22px; color: rgb(0, 0, 0);&quot;&gt;&lt;b&gt;Gold Layer&lt;/b&gt;&lt;/font&gt;" style="rounded=1;whiteSpace=wrap;html=1;fillColor=#fff2cc;strokeColor=#d6b656;" vertex="1" parent="1">
          <mxGeometry x="-30" y="130" width="200" height="60" as="geometry" />
        </mxCell>
        <mxCell id="1FpKwVnMBc2NFOBOfq-e-3" value="&lt;font color=&quot;#000000&quot;&gt;fact_sales&lt;/font&gt;" style="rounded=1;whiteSpace=wrap;html=1;fillColor=#fff2cc;strokeColor=#d6b656;" vertex="1" parent="1">
          <mxGeometry x="-20" y="247" width="180" height="40" as="geometry" />
        </mxCell>
        <mxCell id="1FpKwVnMBc2NFOBOfq-e-4" value="&lt;font style=&quot;color: rgb(0, 0, 0);&quot;&gt;dim_customers&lt;/font&gt;" style="rounded=1;whiteSpace=wrap;html=1;fillColor=#fff2cc;strokeColor=#d6b656;" vertex="1" parent="1">
          <mxGeometry x="-20" y="380" width="180" height="40" as="geometry" />
        </mxCell>
        <mxCell id="1FpKwVnMBc2NFOBOfq-e-5" value="&lt;font style=&quot;color: rgb(0, 0, 0);&quot;&gt;dim_products&lt;/font&gt;" style="rounded=1;whiteSpace=wrap;html=1;fillColor=#fff2cc;strokeColor=#d6b656;" vertex="1" parent="1">
          <mxGeometry x="-20" y="535" width="180" height="40" as="geometry" />
        </mxCell>
        <mxCell id="1FpKwVnMBc2NFOBOfq-e-9" value="" style="endArrow=classic;html=1;rounded=0;exitX=0.343;exitY=0.025;exitDx=0;exitDy=0;exitPerimeter=0;entryX=0;entryY=0.5;entryDx=0;entryDy=0;jumpStyle=gap;" edge="1" parent="1" target="1FpKwVnMBc2NFOBOfq-e-3">
          <mxGeometry width="50" height="50" relative="1" as="geometry">
            <mxPoint x="-89.99999999999999" y="253" as="sourcePoint" />
            <mxPoint x="-31.739999999999995" y="257" as="targetPoint" />
          </mxGeometry>
        </mxCell>
        <mxCell id="1FpKwVnMBc2NFOBOfq-e-10" value="" style="endArrow=classic;html=1;rounded=0;entryX=0;entryY=0.5;entryDx=0;entryDy=0;jumpStyle=gap;" edge="1" parent="1" target="1FpKwVnMBc2NFOBOfq-e-5">
          <mxGeometry width="50" height="50" relative="1" as="geometry">
            <mxPoint x="-90" y="380" as="sourcePoint" />
            <mxPoint x="-40" y="330" as="targetPoint" />
          </mxGeometry>
        </mxCell>
        <mxCell id="1FpKwVnMBc2NFOBOfq-e-11" value="" style="endArrow=classic;html=1;rounded=0;entryX=0;entryY=0.5;entryDx=0;entryDy=0;jumpStyle=gap;" edge="1" parent="1" target="1FpKwVnMBc2NFOBOfq-e-4">
          <mxGeometry width="50" height="50" relative="1" as="geometry">
            <mxPoint x="-90" y="475" as="sourcePoint" />
            <mxPoint x="-40" y="425" as="targetPoint" />
          </mxGeometry>
        </mxCell>
        <mxCell id="1FpKwVnMBc2NFOBOfq-e-12" value="" style="endArrow=classic;html=1;rounded=0;entryX=0;entryY=0.5;entryDx=0;entryDy=0;jumpStyle=gap;" edge="1" parent="1" target="1FpKwVnMBc2NFOBOfq-e-5">
          <mxGeometry width="50" height="50" relative="1" as="geometry">
            <mxPoint x="-90" y="600" as="sourcePoint" />
            <mxPoint x="-40" y="550" as="targetPoint" />
          </mxGeometry>
        </mxCell>
        <mxCell id="1FpKwVnMBc2NFOBOfq-e-13" value="" style="endArrow=classic;html=1;rounded=0;entryX=0;entryY=0.5;entryDx=0;entryDy=0;jumpStyle=gap;" edge="1" parent="1" target="1FpKwVnMBc2NFOBOfq-e-4">
          <mxGeometry width="50" height="50" relative="1" as="geometry">
            <mxPoint x="-90" y="320" as="sourcePoint" />
            <mxPoint x="-40" y="270" as="targetPoint" />
          </mxGeometry>
        </mxCell>
        <mxCell id="1FpKwVnMBc2NFOBOfq-e-15" value="" style="endArrow=classic;html=1;rounded=0;entryX=0;entryY=0.75;entryDx=0;entryDy=0;jumpStyle=gap;" edge="1" parent="1" target="1FpKwVnMBc2NFOBOfq-e-4">
          <mxGeometry width="50" height="50" relative="1" as="geometry">
            <mxPoint x="-90" y="535" as="sourcePoint" />
            <mxPoint x="-40" y="485" as="targetPoint" />
          </mxGeometry>
        </mxCell>
      </root>
    </mxGraphModel>
  </diagram>
</mxfile>
